<?xml version="1.0" standalone="no"?><!DOCTYPE svg PUBLIC "-//W3C//DTD SVG 1.1//EN" "http://www.w3.org/Graphics/SVG/1.1/DTD/svg11.dtd"><svg t="1596349695101" class="icon" viewBox="0 0 1163 1024" version="1.1" xmlns="http://www.w3.org/2000/svg" p-id="2236" width="145.375" height="128" xmlns:xlink="http://www.w3.org/1999/xlink"><defs><style type="text/css"></style></defs><path d="M1062.050909 0C1118.138182 0 1163.636364 48.686545 1163.636364 108.753455V899.723636c0 60.066909-45.474909 108.753455-101.585455 108.753455H101.585455C45.498182 1008.477091 0 959.790545 0 899.723636V108.753455C0 48.709818 45.474909 0 101.585455 0z m0 59.322182H101.585455c-25.506909 0-46.173091 22.132364-46.173091 49.431273L55.389091 844.986182l295.168-286.626909a46.545455 46.545455 0 0 1 74.472727 13.451636l110.731637 233.472 300.590545-399.453091a46.545455 46.545455 0 0 1 78.731636 7.005091l193.140364 382.324364V108.753455c0-26.065455-18.850909-47.406545-42.728727-49.291637l-3.444364-0.139636zM349.090909 155.159273A155.159273 155.159273 0 1 1 349.090909 465.454545a155.159273 155.159273 0 0 1 0-310.295272zM352.977455 372.363636c-10.705455 0-19.409455 6.935273-19.409455 15.522909 0 8.564364 8.680727 15.499636 19.409455 15.499637 10.705455 0 19.386182-6.935273 19.386181-15.499637 0-8.587636-8.680727-15.522909-19.386181-15.522909z m7.749818-155.159272h-15.522909a11.636364 11.636364 0 0 0-11.450182 9.541818l-0.186182 2.094545v100.864a11.636364 11.636364 0 0 0 9.541818 11.450182l2.094546 0.186182h15.522909a11.636364 11.636364 0 0 0 11.450182-9.541818l0.186181-2.094546V228.840727a11.636364 11.636364 0 0 0-11.636363-11.636363z" fill="#7C848D" p-id="2237"></path></svg>